# xmcd
#
# Track frame offsets:
# 150
# 22100
# 39940
# 62213
#
# Disc length: 1119 seconds
#
#
# Revision: 2
# Processed by: cddbd v1.4PL0 Copyright (c) Steve Scherf et al.
# Submitted via: FreeRIP 2.12 
#
DISCID=2e045d04
DTITLE=Moody Blues, The - Your Wildest Dreams
DYEAR=1986
DGENRE=Rock
TTITLE0=Your Wildest Dreams
TTITLE1=Talkin' Talkin'
TTITLE2=It May be a Fire
TTITLE3=Rock 'N' Roll Over You
EXTD=
EXTT0=
EXTT1=
EXTT2=
EXTT3=
PLAYORDER=
